<?xml version="1.0" encoding="utf-8"?>
<!-- Generator: Adobe Illustrator 27.5.0, SVG Export Plug-In . SVG Version: 6.00 Build 0)  -->
<svg version="1.1" xmlns="http://www.w3.org/2000/svg" xmlns:xlink="http://www.w3.org/1999/xlink" x="0px" y="0px"
	 viewBox="0 0 500 500" style="enable-background:new 0 0 500 500;" xml:space="preserve">
<g id="BACKGROUND">
</g>
<g id="OBJECTS">
	<g>
		<path style="fill:#E8FAF5;" d="M442.237,324.723c-7.326-16.066-20.071-30.107-27.353-47.856
			c-3.482-8.488-5.028-17.61-3.719-26.765c1.454-10.17,6.504-19.025,11.852-27.551c20.817-33.187,32.606-86.874-7.391-110.612
			c-13.404-7.955-29.997-13.016-45.386-15.245c-10.204-1.478-20.818-0.924-30.71-4.163c-29.449-9.645-78.839-56.448-108.483-21.877
			c-21.339,24.886-15.699,74.427-54.579,81.229c-11.328,1.982-22.934,2.083-34.321,3.732c-12.776,1.85-25.443,4.726-37.495,9.487
			c-23.648,9.342-47.068,28.769-52.675,55.206c-5.032,23.725,10.568,44.632,20.173,64.757c4.326,9.063,7.821,18.575,8.758,28.675
			c1.11,11.963-1.684,23.949-0.682,35.938c1.094,13.085-2.136,17.553-2.136,28.246c0,9.126,5.183,18.211,5.183,18.211h352.038
			C457.63,369.804,447.07,335.321,442.237,324.723z"/>
		<g>
			<path style="fill:#B3FCE4;" d="M238.974,376.513c16.867-19.161,38.189-35.723,40.984-62.661
				c0.823-7.93,3.308-21.005-2.228-27.901c-6.323-7.876-19.016-1.302-25.865,2.28c-4.197,2.195-7.171,5.82-9.322,9.694
				c7.955-55.68,8.971-92.586-10.841-112.383c-23.555-23.537-37.506,12.643-44.991,40.387
				c-1.957-50.877-78.542-106.256-100.12-89.008c-20.418,16.32,22.54,50.558,43.371,120.2
				C63.246,192.24,14.49,231.458,86.999,284.762c12.896,13.153,28.842,21.282,56.33,61.884
				c-33.184-25.901-80.083,1.322-28.947,25.858c7.402,3.551,39.117,20.454,40.529,25.829c3.326,12.66,13.618,18.421,26.064,19.198
				c8.599,0.536,17.473,0.636,26.02-0.647c12.862-1.932,15.073-16.711,20.919-25.939
				C231.132,385.864,234.925,381.114,238.974,376.513z"/>
			<g>
				<g>
					<path style="fill:#86C2C2;" d="M104.113,150.29c2.657,1.651,4.829,3.49,7.049,5.42c2.108,2.002,4.283,3.947,6.183,6.132
						l2.946,3.195c0.983,1.064,1.834,2.233,2.757,3.344l2.718,3.376l1.359,1.689l1.248,1.766l4.979,7.076
						c0.863,1.159,1.579,2.409,2.341,3.631l2.264,3.679l2.263,3.68c0.742,1.233,1.547,2.433,2.194,3.718l4.084,7.602l2.042,3.802
						c0.688,1.264,1.371,2.53,1.952,3.845l3.654,7.81l3.654,7.811l3.257,7.977l3.241,7.984l1.621,3.992
						c0.553,1.326,0.971,2.701,1.463,4.049l5.695,16.254l1.424,4.064l1.238,4.122l2.475,8.244l2.474,8.245l1.237,4.123l0.619,2.061
						l0.537,2.083l4.244,16.677l2.122,8.339c0.342,1.392,0.732,2.774,1.036,4.175l0.895,4.206l3.582,16.826l1.791,8.414l0.893,4.207
						l0.74,4.235l5.921,33.885c0.195,1.117-0.552,2.181-1.67,2.376c-1.117,0.195-2.181-0.552-2.376-1.67l-0.002-0.009l-0.012-0.07
						l-5.747-33.786l-0.718-4.224l-0.87-4.193l-1.746-8.385l-3.491-16.772l-0.873-4.193c-0.296-1.397-0.678-2.772-1.012-4.16
						l-2.075-8.307l-4.149-16.616l-0.525-2.075l-0.606-2.052l-1.212-4.104l-2.424-8.209l-2.423-8.21l-1.213-4.105l-1.396-4.043
						l-5.586-16.174c-0.483-1.341-0.892-2.711-1.435-4.029l-1.591-3.968l-3.181-7.937l-3.196-7.931l-3.587-7.755l-3.586-7.756
						c-0.57-1.307-1.24-2.562-1.916-3.814l-2.003-3.769l-4.006-7.54c-0.635-1.277-1.423-2.461-2.15-3.682l-2.218-3.642l-2.218-3.642
						c-0.746-1.21-1.448-2.449-2.292-3.591l-4.869-6.986l-1.22-1.745l-1.325-1.66l-2.65-3.322c-0.899-1.093-1.731-2.249-2.686-3.29
						l-2.859-3.128c-1.849-2.149-3.941-4.029-5.971-5.979c-2.078-1.838-4.306-3.692-6.503-5.079l-0.127-0.08
						c-0.67-0.423-0.87-1.308-0.447-1.977C102.565,150.076,103.445,149.875,104.113,150.29z"/>
				</g>
				
					<path style="fill:none;stroke:#86C2C2;stroke-width:2.8713;stroke-linecap:round;stroke-linejoin:round;stroke-miterlimit:10;" d="
					M218.284,232.473c0,0-24.602,34.669-31.097,91.943"/>
				
					<path style="fill:none;stroke:#86C2C2;stroke-width:2.8713;stroke-linecap:round;stroke-linejoin:round;stroke-miterlimit:10;" d="
					M76.022,242.723c0,0,63.807,21.156,116.711,106.592"/>
				
					<path style="fill:none;stroke:#86C2C2;stroke-width:2.8713;stroke-linecap:round;stroke-linejoin:round;stroke-miterlimit:10;" d="
					M115.931,357.04c0,0,39.593,0.576,83.091,33.985"/>
				
					<path style="fill:none;stroke:#86C2C2;stroke-width:2.8713;stroke-linecap:round;stroke-linejoin:round;stroke-miterlimit:10;" d="
					M258.554,306.795c0,0-33.389,26.323-56.277,90.445"/>
			</g>
		</g>
		<path style="fill:#86C2C2;" d="M87.733,402.246c10.381,13.855,23.625,22.713,41.322,23.688
			c18.109,0.997,36.055-2.408,54.059,0.476c15.075,2.415,26.632,11.93,42.008,12.067c14.872,0.132,30.425-10.76,42.299-18.994
			c10.448-7.245,42.539-14.077,72.438-5.413c10.296,2.984,34.714,8.912,49.596,8.912c29.004,0,45.855-26.845,45.855-26.845H83.272
			C84.746,398.182,86.222,400.229,87.733,402.246z"/>
		<g>
			<g>
				
					<ellipse transform="matrix(0.9557 -0.2942 0.2942 0.9557 -94.9605 45.2459)" style="fill:#FFAA00;" cx="102.904" cy="338.244" rx="32.556" ry="32.556"/>
				
					<ellipse transform="matrix(0.9603 -0.2791 0.2791 0.9603 -90.3175 42.1634)" style="fill:#FFCA39;" cx="102.904" cy="338.244" rx="31.6" ry="31.6"/>
				<circle style="fill:#FFAA00;" cx="102.904" cy="338.244" r="24.813"/>
				<g>
					<path style="fill:#C99914;" d="M115.076,349.773l2.699,4.009l-4.154,2.796l-2.577-3.829c-3.092,1.766-6.606,2.715-9.273,2.568
						l-1.944-7.72c2.893,0.1,6.093-0.742,8.361-2.269c1.974-1.329,2.34-2.31,1.757-3.177c-2.14-3.179-11.814,7.06-18.16-2.367
						c-2.748-4.082-2.642-9.139,1.63-13.222l-2.65-3.937l4.153-2.796l2.602,3.865c2.35-1.215,4.933-1.956,7.39-1.931l2.067,7.585
						c-2.884,0.104-5.212,0.779-7.009,1.989c-2.033,1.368-2.194,2.527-1.611,3.394c2.043,3.034,11.74-7.169,18.014,2.15
						C118.997,340.782,118.986,345.724,115.076,349.773z"/>
				</g>
				<g>
					<path style="fill:#FFCA39;" d="M114.064,349.575l2.699,4.01l-4.153,2.796l-2.577-3.829c-3.092,1.766-6.606,2.715-9.273,2.568
						l-1.944-7.72c2.893,0.1,6.093-0.742,8.361-2.269c1.974-1.329,2.34-2.31,1.757-3.177c-2.14-3.179-11.814,7.06-18.16-2.367
						c-2.748-4.082-2.642-9.139,1.63-13.223l-2.65-3.937l4.154-2.796l2.602,3.865c2.35-1.214,4.933-1.956,7.39-1.931l2.067,7.585
						c-2.884,0.104-5.212,0.779-7.009,1.989c-2.033,1.368-2.194,2.527-1.611,3.394c2.042,3.034,11.74-7.169,18.014,2.15
						C117.985,340.584,117.973,345.526,114.064,349.575z"/>
				</g>
			</g>
			<g>
				
					<ellipse transform="matrix(0.9234 -0.3838 0.3838 0.9234 -61.2889 65.9114)" style="fill:#FFAA00;" cx="134.507" cy="186.525" rx="32.556" ry="32.556"/>
				
					<ellipse transform="matrix(0.4452 -0.8955 0.8955 0.4452 -92.394 223.9356)" style="fill:#FFCA39;" cx="134.507" cy="186.525" rx="31.6" ry="31.6"/>
				
					<ellipse transform="matrix(0.1408 -0.99 0.99 0.1408 -69.0964 293.4325)" style="fill:#FFAA00;" cx="134.507" cy="186.525" rx="24.812" ry="24.813"/>
				<g>
					<path style="fill:#C99914;" d="M142.901,201.037l1.449,4.611l-4.777,1.501l-1.383-4.403c-3.466,0.815-7.105,0.726-9.62-0.173
						l0.33-7.954c2.745,0.918,6.053,1.02,8.661,0.2c2.27-0.713,2.9-1.55,2.587-2.547c-1.148-3.656-13.333,3.412-16.739-7.43
						c-1.475-4.694,0.063-9.513,5.319-12.214l-1.422-4.528l4.777-1.501l1.396,4.445c2.598-0.497,5.285-0.474,7.634,0.249
						l-0.174,7.859c-2.795-0.719-5.218-0.734-7.285-0.085c-2.338,0.734-2.822,1.799-2.509,2.796
						c1.096,3.49,13.294-3.538,16.661,7.18C149.216,193.531,147.8,198.266,142.901,201.037z"/>
				</g>
				<g>
					<path style="fill:#FFCA39;" d="M141.987,200.56l1.449,4.611l-4.777,1.501l-1.383-4.403c-3.466,0.815-7.105,0.726-9.62-0.173
						l0.33-7.954c2.745,0.918,6.053,1.02,8.661,0.2c2.27-0.713,2.9-1.55,2.587-2.547c-1.148-3.656-13.333,3.412-16.739-7.43
						c-1.475-4.694,0.063-9.513,5.32-12.214l-1.423-4.528l4.777-1.501l1.396,4.445c2.598-0.497,5.285-0.474,7.634,0.249
						l-0.174,7.859c-2.795-0.719-5.218-0.734-7.285-0.085c-2.338,0.734-2.822,1.799-2.509,2.796
						c1.096,3.49,13.294-3.537,16.661,7.18C148.301,193.054,146.886,197.789,141.987,200.56z"/>
				</g>
			</g>
			<g>
				
					<ellipse transform="matrix(0.2393 -0.9709 0.9709 0.2393 90.7805 363.4488)" style="fill:#FFAA00;" cx="277.338" cy="123.789" rx="24.826" ry="24.826"/>
				
					<ellipse transform="matrix(0.7071 -0.7071 0.7071 0.7071 -6.3018 232.3649)" style="fill:#FFCA39;" cx="277.338" cy="123.789" rx="24.097" ry="24.097"/>
				
					<ellipse transform="matrix(0.8546 -0.5193 0.5193 0.8546 -23.9566 162.0223)" style="fill:#FFAA00;" cx="277.338" cy="123.789" rx="18.921" ry="18.921"/>
				<g>
					<path style="fill:#C99914;" d="M277.153,136.573l-0.857,3.585l-3.714-0.887l0.818-3.423c-2.588-0.823-4.934-2.306-6.229-3.878
						l3.329-5.077c1.438,1.675,3.562,3.036,5.59,3.521c1.765,0.422,2.505,0.121,2.69-0.654c0.679-2.842-10.062-2.985-8.048-11.414
						c0.872-3.649,3.765-6.202,8.262-5.912l0.841-3.52l3.714,0.887l-0.826,3.456c1.895,0.692,3.645,1.758,4.899,3.15l-3.19,5.076
						c-1.547-1.565-3.128-2.523-4.735-2.907c-1.817-0.434-2.551,0.073-2.736,0.848c-0.648,2.713,10.085,2.887,8.094,11.22
						C284.223,134.132,281.444,136.677,277.153,136.573z"/>
				</g>
				<g>
					<path style="fill:#FFCA39;" d="M276.741,135.903l-0.856,3.585l-3.714-0.887l0.818-3.423c-2.588-0.823-4.934-2.306-6.229-3.878
						l3.329-5.077c1.438,1.675,3.562,3.036,5.59,3.521c1.765,0.422,2.505,0.121,2.69-0.654c0.679-2.842-10.062-2.985-8.048-11.414
						c0.872-3.649,3.765-6.202,8.262-5.912l0.841-3.52l3.714,0.887l-0.826,3.456c1.895,0.692,3.645,1.758,4.899,3.151l-3.19,5.076
						c-1.547-1.565-3.128-2.523-4.735-2.907c-1.817-0.434-2.551,0.073-2.736,0.848c-0.648,2.713,10.085,2.887,8.094,11.22
						C283.812,133.461,281.032,136.006,276.741,135.903z"/>
				</g>
			</g>
		</g>
		<g>
			<path style="fill:#2E3344;" d="M401.548,127.185c0,0-3.817,20.996,15.325,28.202c19.142,7.206,13.718,21.992,2.552,32.508
				c-15.943,15.015-30.072-1.496-52.044,0c-21.972,1.496-15.939-23.912-3.055-38.407c12.884-14.495,0-31.838,0-31.838
				L401.548,127.185z"/>
			<g>
				<path style="fill:#4E68C4;" d="M380.839,261.485c1.74,13.426-8.933,58.842-12.662,73.842
					c3.996,13.136,4.168,21.356,3.996,30.333c0,0-2.8,20.469-2.794,23.982l-12.298,1.377c-0.293-3.483-5.131-48.384-8.586-64.89
					c-3.144-15.023,2.839-51.705,8.142-77.86C368.868,246.053,379.617,252.059,380.839,261.485z"/>
				<path style="fill:#141C23;" d="M362.031,389.401l-8.072,2.638c-4.333,0.974-7.62,1.954-10.012,2.746
					c-1.546,0.511-2.533,1.809-1.736,2.992c0.294,0.436,0.737,0.723,1.31,0.809l24.304-0.034c1.018,0.001,1.844-0.677,1.846-1.515
					l0.005-1.311l0.007,0.001v-6.324H362.031z"/>
			</g>
			<g>
				<path style="fill:#6384FA;" d="M399.897,243.087c3.427,4.695,1.869,16.971-1.835,27.499
					c-4.493,12.771,5.687,37.806-3.289,61.733c8.349,9.571,8.521,21.332,8.349,30.308c0,0-0.371,24.133-0.365,27.646l-11.158,1.457
					c-0.293-3.483-10.252-46.218-14.382-62.569c-6.934-27.448-12.89-57.024-15.785-81.349
					C373.663,245.598,387.608,244.976,399.897,243.087z"/>
				<path style="fill:#141C23;" d="M395.081,389.401l-7.683,2.638c-4.333,0.974-7.62,1.954-10.012,2.746
					c-1.546,0.511-2.534,1.809-1.736,2.992c0.294,0.436,0.736,0.723,1.31,0.809l24.304-0.034c1.018,0.001,1.844-0.677,1.846-1.515
					l0.005-1.311l0.007,0.001v-6.324H395.081z"/>
			</g>
			<g>
				<g>
					<path style="fill:#E3A5A2;" d="M361.23,186.055l-33.096,22.504l-0.45,0.306c-2.754,1.873-6.474,1.258-8.51-1.311
						l-24.919-31.584l-0.008-0.01c-1.999-2.534-1.566-6.208,0.968-8.207c2.487-1.962,6.079-1.574,8.101,0.837l25.838,30.876
						l-8.96-1.005l29.675-26.855c3.772-3.414,9.598-3.123,13.011,0.649c3.414,3.772,3.123,9.598-0.649,13.011
						C361.925,185.544,361.561,185.826,361.23,186.055z"/>
				</g>
				<path style="fill:#5D52D9;" d="M351.157,167.867l-20.323,19.622l10.534,13.682l28.005-23.242l0.623-15.915l-5.062-1.463
					C359.403,160.505,353.715,165.519,351.157,167.867z"/>
				<path style="fill:#FFFFFF;" d="M334.723,183.734l-3.89,3.756l10.534,13.682l4.476-3.715
					C342.295,192.76,338.563,188.205,334.723,183.734z"/>
				<g>
					<g>
						<g>
							<path style="fill:#E3A5A2;" d="M291.78,165.205c0.059,0.2,0.066,0.193,0.077,0.216c0.016,0.031,0.028,0.048,0.027,0.041
								c0,0,0.026,0.015,0.016-0.013c-0.004-0.035-0.007-0.078-0.035-0.145c-0.033-0.116-0.112-0.276-0.193-0.431
								c-0.164-0.317-0.397-0.667-0.649-1.012c-0.513-0.695-1.129-1.397-1.794-2.077c-1.336-1.364-2.864-2.648-4.449-3.878
								l-0.021-0.016c-0.79-0.614-0.933-1.752-0.32-2.542c0.53-0.683,1.453-0.882,2.204-0.527c1.92,0.905,3.827,1.886,5.695,3.092
								c0.934,0.606,1.858,1.268,2.77,2.051c0.456,0.396,0.907,0.815,1.356,1.322c0.226,0.256,0.447,0.514,0.674,0.84
								c0.11,0.149,0.227,0.333,0.342,0.525c0.054,0.083,0.122,0.224,0.18,0.335c0.027,0.051,0.063,0.128,0.1,0.219
								c0.033,0.084,0.064,0.136,0.141,0.398c0.442,1.69-0.569,3.419-2.259,3.861C293.952,167.907,292.223,166.895,291.78,165.205z"
								/>
						</g>
						<g>
							<path style="fill:#E3A5A2;" d="M296.195,164.639c0.057,0.27,0.059,0.23,0.075,0.282c0.021,0.051,0.025,0.053,0.029,0.057
								c0.012,0.014,0.029,0.029,0.023,0.005c0.008-0.02-0.002-0.071-0.022-0.134c-0.036-0.121-0.093-0.277-0.18-0.444
								c-0.153-0.331-0.385-0.701-0.626-1.069c-0.498-0.741-1.106-1.489-1.744-2.227c-1.302-1.47-2.772-2.884-4.298-4.253
								l-0.016-0.014c-0.745-0.668-0.807-1.814-0.139-2.558c0.579-0.645,1.517-0.778,2.241-0.367
								c1.871,1.059,3.723,2.187,5.535,3.503c0.902,0.672,1.799,1.376,2.677,2.207c0.439,0.425,0.875,0.86,1.307,1.394
								c0.216,0.257,0.431,0.549,0.648,0.884c0.107,0.165,0.217,0.345,0.328,0.566c0.052,0.093,0.114,0.23,0.172,0.367
								c0.028,0.065,0.056,0.129,0.093,0.242c0.035,0.114,0.058,0.137,0.127,0.471c0.301,1.721-0.851,3.36-2.572,3.66
								C298.135,167.511,296.496,166.36,296.195,164.639z"/>
						</g>
						<g>
							<path style="fill:#E3A5A2;" d="M291.356,170.082c0.044,0.051-0.03-0.101-0.066-0.176c-0.039-0.089-0.104-0.197-0.154-0.296
								c-0.118-0.206-0.24-0.418-0.382-0.632c-0.271-0.428-0.587-0.855-0.914-1.279c-0.663-0.846-1.417-1.661-2.218-2.446
								c-0.802-0.786-1.671-1.525-2.571-2.24c-0.903-0.713-1.854-1.378-2.827-2.027l-0.04-0.027
								c-0.831-0.554-1.055-1.676-0.501-2.507c0.49-0.735,1.425-0.994,2.209-0.662c1.164,0.493,2.325,1.016,3.463,1.609
								c1.136,0.597,2.262,1.237,3.354,1.963c1.091,0.726,2.161,1.513,3.186,2.406c0.511,0.451,1.016,0.915,1.505,1.431
								c0.247,0.252,0.488,0.525,0.73,0.805c0.122,0.15,0.24,0.284,0.364,0.45c0.132,0.176,0.222,0.279,0.417,0.593
								c0.838,1.533,0.274,3.455-1.259,4.293C294.115,172.179,292.193,171.615,291.356,170.082z"/>
						</g>
						<g>
							<path style="fill:#E3A5A2;" d="M291.272,174.282c-0.72-0.888-1.594-1.861-2.437-2.771c-0.856-0.921-1.732-1.833-2.631-2.724
								c-1.795-1.785-3.667-3.505-5.606-5.155l-0.01-0.009c-0.761-0.647-0.853-1.789-0.205-2.55
								c0.578-0.679,1.549-0.825,2.292-0.389c2.282,1.337,4.518,2.764,6.702,4.282c1.093,0.757,2.169,1.542,3.237,2.348
								c1.077,0.82,2.096,1.61,3.196,2.559c1.329,1.144,1.48,3.15,0.335,4.479c-1.144,1.329-3.149,1.48-4.479,0.335
								C291.526,174.567,291.386,174.42,291.272,174.282z"/>
						</g>
					</g>
					<path style="fill:#DB9491;" d="M295.316,178.015c3.393,1.78,10.236-1.536,10.236-1.536c1.412-6.735-0.225-10.473-1.761-12.637
						l-8.376-3.022c0,0-2.933,2.819-2.939,2.825c-1.277,1.227-2.524,2.674-2.938,4.443
						C288.975,170.495,292.115,176.335,295.316,178.015z"/>
					<g>
						<path style="fill:#E3A5A2;" d="M300.395,156.733c0.67,0.394,1.113,0.707,1.612,1.121c0.486,0.395,0.933,0.839,1.364,1.312
							c0.848,0.955,1.565,2.104,2.039,3.39c0.472,1.278,0.729,2.699,0.659,4.071c0.016,0.705-0.122,1.355-0.219,2.034
							c-0.125,0.661-0.327,1.28-0.505,1.927c-0.466,1.697-2.22,2.695-3.917,2.229c-1.697-0.466-2.695-2.22-2.229-3.917
							c0.05-0.181,0.114-0.355,0.192-0.519l0.15-0.312c0.16-0.334,0.377-0.672,0.523-1.012c0.114-0.336,0.301-0.684,0.354-1.022
							c0.211-0.69,0.232-1.378,0.151-2.093c-0.086-0.712-0.325-1.449-0.72-2.157c-0.205-0.349-0.426-0.701-0.689-1.028
							c-0.234-0.32-0.594-0.674-0.779-0.87l-0.273-0.29c-0.701-0.744-0.666-1.915,0.077-2.616
							C298.801,156.405,299.704,156.328,300.395,156.733z"/>
					</g>
				</g>
			</g>
			<path style="fill:#6C5EFF;" d="M395.397,174.471c-2.338-10.067-8.066-13.981-17.531-13.999
				c-3.896-0.007-7.792-0.031-11.688-0.047c-0.35-0.001-0.703,0.019-1.046,0.083c-5.025,0.93-8.225,4.872-8.19,9.217
				c0.003,0.389-0.014,0.772-0.08,1.155c-0.276,1.591-1.295,6.158-4.893,15.213c-1.086,2.734-2.881,10.05,2.912,15.201
				c1.275,1.133,2.072,2.701,2.11,4.406c0.285,12.697-0.008,27.232-2.059,38.253c-0.595,3.194,1.546,6.25,4.733,6.88
				c13.626,2.695,27.078,3.374,38.94,1.251c3.183-0.57,6.087-3.74,4.857-6.731C393.059,220.063,397.036,181.531,395.397,174.471z"/>
			<g>
				<path style="fill:#DB9491;" d="M381.19,162.263c0,0-9.024,8.416-11.195,7.066c-1.228-0.764-1.708-7.158-1.708-7.158
					s1.874-7.257-0.434-14.845c1.536-3.391,10.8-4.087,13.44,0.474C380.056,154.405,381.19,162.263,381.19,162.263z"/>
				<g>
					<path style="fill:#2E3344;" d="M389.206,148.541c0,0-0.865,1.022,0.249,3.055c0,0-2.503-1.239-1.952-3.286L389.206,148.541z"/>
					<path style="fill:#2E3344;" d="M393.796,142.17c0,0,1.302,4.526-7.34,7.535l6.301-12.211L393.796,142.17z"/>
					<path style="fill:#2E3344;" d="M390.756,146.705c0,0-0.211,2.3,3.304,2.525c0,0-2.641,0.995-4.414-0.926L390.756,146.705z"/>
				</g>
				<g>
					<path style="fill:#2E3344;" d="M360.475,121.126c0,0-7.501,13.483-0.435,21.921l2.627-0.502L360.475,121.126z"/>
					<path style="fill:#DB9491;" d="M356.535,135.851c0.678,2.775,2.482,4.718,4.029,4.34c1.547-0.378,2.251-2.934,1.573-5.709
						c-0.678-2.775-2.482-4.718-4.029-4.34C356.561,130.52,355.857,133.077,356.535,135.851z"/>
					<path style="fill:#FFB9B6;" d="M393.373,119.216c-3.519-5.119-8.986-8.515-15.252-8.777c-0.208-0.009-0.427-0.004-0.642-0.004
						c-0.215-0.018-0.433-0.041-0.64-0.05c-6.266-0.262-8.643-0.726-12.741,3.943c-5.284,6.02-3.858,18.196-4.019,22.061
						c-0.458,10.954,0.333,18.849,10.514,19.223c10.659,0.392,21.719-6.437,22.83-17.787
						C393.799,133.977,395.567,122.407,393.373,119.216z"/>
					<path style="fill:#2E3344;" d="M369.761,105.046c2.031-0.682,4.349-0.904,6.055-1.012c5.991-0.377,12.571-0.232,17.546,3.374
						c9.779,7.091,11.379,21.275,2.922,31.578c-2.287,1.931-29.839-3.803-36.948-18.572c-2.099-4.361,5.702-5.17,5.906-10.425
						C365.346,107.311,367.352,105.855,369.761,105.046z"/>
					<path style="fill:#2E3344;" d="M369.892,112.674c0,0,0.462,15.543-12.516,17.412c0,0-5.834-17.453,11.922-24.872
						L369.892,112.674z"/>
					<path style="fill:#FFB9B6;" d="M396.284,138.987c-1.071,3.195-3.382,5.3-5.163,4.703c-1.781-0.597-2.357-3.67-1.286-6.865
						c1.071-3.195,3.382-5.3,5.163-4.704C396.779,132.719,397.354,135.792,396.284,138.987z"/>
				</g>
			</g>
			<g>
				<path style="fill:#006BB3;" d="M306.43,240.857H167.113c-5.419,0-9.813-4.393-9.813-9.813v-85.035
					c0-5.419,4.393-9.813,9.813-9.813H306.43c5.419,0,9.813,4.393,9.813,9.813v85.035
					C316.243,236.464,311.85,240.857,306.43,240.857z"/>
				<path style="fill:#0089E5;" d="M304.516,242.771H165.198c-5.419,0-9.813-4.393-9.813-9.813v-85.035
					c0-5.419,4.393-9.813,9.813-9.813h139.318c5.419,0,9.813,4.393,9.813,9.813v85.035
					C314.329,238.378,309.935,242.771,304.516,242.771z"/>
				<g>
					<g>
						<path style="fill:#FFE05E;" d="M193.634,198.657h-25.99c-2.161,0-3.914-1.752-3.914-3.914v-15.709
							c0-2.162,1.752-3.914,3.914-3.914h25.99c2.162,0,3.914,1.752,3.914,3.914v15.709
							C197.548,196.905,195.796,198.657,193.634,198.657z"/>
						<g>
							<g>
								
									<line style="fill:none;stroke:#FCFEFF;stroke-width:0.8219;stroke-miterlimit:10;" x1="163.73" y1="182.713" x2="197.548" y2="182.713"/>
								
									<line style="fill:none;stroke:#FCFEFF;stroke-width:0.8219;stroke-miterlimit:10;" x1="163.73" y1="191.064" x2="197.548" y2="191.064"/>
							</g>
							<g>
								
									<line style="fill:none;stroke:#FCFEFF;stroke-width:0.8219;stroke-miterlimit:10;" x1="173.998" y1="191.064" x2="173.998" y2="182.713"/>
								
									<line style="fill:none;stroke:#FCFEFF;stroke-width:0.8219;stroke-miterlimit:10;" x1="187.281" y1="191.064" x2="187.281" y2="182.713"/>
							</g>
						</g>
					</g>
					<g>
						<path style="fill:#E0FEFD;" d="M192.885,215.962h-27.272c-1.039,0-1.882-0.842-1.882-1.882v-4.778
							c0-1.039,0.843-1.882,1.882-1.882h27.272c1.039,0,1.882,0.843,1.882,1.882v4.778
							C194.766,215.12,193.924,215.962,192.885,215.962z"/>
						<path style="fill:#E0FEFD;" d="M229.957,215.962h-27.272c-1.039,0-1.882-0.842-1.882-1.882v-4.778
							c0-1.039,0.842-1.882,1.882-1.882h27.272c1.039,0,1.882,0.843,1.882,1.882v4.778
							C231.839,215.12,230.996,215.962,229.957,215.962z"/>
						<path style="fill:#E0FEFD;" d="M267.029,215.962h-27.272c-1.039,0-1.882-0.842-1.882-1.882v-4.778
							c0-1.039,0.843-1.882,1.882-1.882h27.272c1.039,0,1.882,0.843,1.882,1.882v4.778
							C268.911,215.12,268.069,215.962,267.029,215.962z"/>
						<path style="fill:#E0FEFD;" d="M304.102,215.962H276.83c-1.039,0-1.882-0.842-1.882-1.882v-4.778
							c0-1.039,0.842-1.882,1.882-1.882h27.272c1.039,0,1.882,0.843,1.882,1.882v4.778
							C305.984,215.12,305.141,215.962,304.102,215.962z"/>
					</g>
				</g>
				<path style="fill:#0071BD;" d="M303.991,235.652h-85.188c-1.101,0-1.993-0.892-1.993-1.993v-4.628
					c0-1.101,0.892-1.993,1.993-1.993h85.188c1.101,0,1.993,0.892,1.993,1.993v4.628
					C305.984,234.759,305.091,235.652,303.991,235.652z"/>
				<g>
					<path style="fill:#0071BD;" d="M284.367,223.688h-7.964c-0.543,0-0.983-0.44-0.983-0.983v-2.615
						c0-0.543,0.44-0.983,0.983-0.983h7.964c0.543,0,0.983,0.44,0.983,0.983v2.615C285.35,223.248,284.91,223.688,284.367,223.688z"
						/>
					<path style="fill:#0071BD;" d="M304.626,223.688h-7.964c-0.543,0-0.983-0.44-0.983-0.983v-2.615
						c0-0.543,0.44-0.983,0.983-0.983h7.964c0.543,0,0.983,0.44,0.983,0.983v2.615C305.609,223.248,305.169,223.688,304.626,223.688
						z"/>
				</g>
			</g>
			<g>
				<g>
					<g>
						<path style="fill:#FFB9B6;" d="M389.711,192.263l-27.113,33.122l-0.382,0.466c-1.467,1.792-3.727,2.605-5.869,2.368
							l-25.404-3.01l-12.694-1.457l-6.329-0.698l-3.138-0.327l-1.551-0.153l-1.436-0.122l-0.216-0.018
							c-3.457-0.294-6.02-3.335-5.726-6.792c0.291-3.418,3.274-5.962,6.683-5.734l1.755,0.119l1.637,0.134l3.234,0.283l6.408,0.6
							l12.769,1.252l25.502,2.596l-6.251,2.834l21.625-36.94c2.812-4.804,8.986-6.418,13.789-3.606
							c4.804,2.812,6.418,8.986,3.606,13.789C390.351,191.414,390.025,191.874,389.711,192.263z"/>
					</g>
					<g>
						<g>
							<path style="fill:#FFB9B6;" d="M294.383,203.741c1.041-0.042,1.881,0.063,2.821,0.335c0.913,0.269,1.827,0.707,2.641,1.333
								c0.804,0.622,1.564,1.396,2.112,2.272c0.316,0.432,0.516,0.886,0.766,1.35c0.218,0.462,0.386,0.93,0.573,1.411l0.064,0.164
								c0.651,1.675-0.179,3.56-1.854,4.212c-1.675,0.651-3.561-0.179-4.212-1.854c-0.19-0.49-0.252-1.012-0.205-1.501
								c0.052-0.525,0.096-1.068,0.031-1.564c-0.034-0.523-0.19-0.984-0.405-1.467c-0.221-0.477-0.563-0.923-1.003-1.321
								c-0.414-0.396-1.039-0.746-1.498-0.963l-0.292-0.138c-0.595-0.281-0.849-0.992-0.568-1.587
								C293.55,204.008,293.955,203.759,294.383,203.741z"/>
						</g>
						<path style="fill:#FFB9B6;" d="M301.521,207.833c1.496,0.411,3.15,0.927,4.649,2.354c1.098,1.045,1.826,5.519,0.987,7.024
							c-2.029,3.637-5.498,5.204-8.252,5.963c-2.219,0.611-5.291,0.713-6.603,0.924c-0.62,0.1-0.747-0.747-0.713-1.375l-0.02-9.993
							C294.488,212.354,301.521,207.833,301.521,207.833z"/>
						<g>
							<path style="fill:#FFB9B6;" d="M294.426,216.047c-0.202,0.04-0.218,0.034-0.302,0.045l-0.18,0.012
								c-0.112,0.006-0.215,0.008-0.303,0.006c-0.192,0.001-0.36-0.01-0.528-0.021c-0.332-0.025-0.646-0.06-0.947-0.107
								c-0.609-0.087-1.18-0.208-1.747-0.335c-1.127-0.262-2.207-0.582-3.276-0.919c-2.127-0.69-4.185-1.483-6.216-2.32
								c-0.686-0.283-1.013-1.068-0.73-1.755c0.264-0.641,0.967-0.969,1.617-0.779l0.014,0.004c2.057,0.608,4.123,1.165,6.183,1.603
								c1.029,0.21,2.057,0.401,3.064,0.527c0.5,0.058,1.001,0.111,1.471,0.127c0.238,0.013,0.465,0.011,0.675,0.005
								c0.103-0.005,0.206-0.009,0.285-0.02c0.048-0.003,0.079-0.009,0.103-0.015c0.011-0.003,0.035-0.005,0.023-0.007
								c-0.017,0.002,0.034-0.011-0.101,0.015c1.087-0.247,2.168,0.434,2.415,1.52S295.512,215.8,294.426,216.047z"/>
						</g>
						<g>
							<path style="fill:#FFB9B6;" d="M295.682,218.003c-0.177,0.118-0.243,0.146-0.312,0.182c-0.076,0.039-0.153,0.076-0.207,0.096
								c-0.116,0.046-0.25,0.104-0.353,0.134c-0.217,0.069-0.434,0.131-0.628,0.167c-0.407,0.092-0.776,0.128-1.143,0.153
								c-0.734,0.055-1.409,0.007-2.073-0.06c-1.32-0.149-2.55-0.447-3.744-0.798c-1.185-0.369-2.333-0.791-3.449-1.262
								c-1.118-0.467-2.199-0.989-3.275-1.515c-0.666-0.326-0.942-1.13-0.616-1.797c0.306-0.625,1.033-0.906,1.671-0.67l0.042,0.016
								c1.07,0.401,2.139,0.795,3.217,1.128c1.077,0.337,2.159,0.618,3.235,0.842c1.074,0.206,2.146,0.351,3.159,0.365
								c0.501,0.002,0.999-0.015,1.427-0.095c0.213-0.036,0.426-0.08,0.583-0.139c0.092-0.025,0.152-0.057,0.212-0.083
								c0.036-0.013,0.033-0.023,0.052-0.032c0.014-0.006,0.002-0.004-0.01,0c0,0-0.006-0.004-0.122,0.074
								c0.909-0.644,2.169-0.429,2.813,0.48C296.807,216.1,296.592,217.359,295.682,218.003z"/>
						</g>
						<g>
							<path style="fill:#FFB9B6;" d="M294.84,221.831c-0.29,0.109-0.298,0.092-0.418,0.125c-0.112,0.026-0.157,0.028-0.235,0.041
								c-0.15,0.023-0.276,0.033-0.387,0.038c-0.248,0.018-0.442,0.007-0.653,0.002c-0.399-0.022-0.77-0.066-1.119-0.127
								c-0.708-0.115-1.351-0.289-1.988-0.471c-1.259-0.378-2.43-0.853-3.586-1.345c-2.292-1.011-4.464-2.167-6.592-3.379
								c-0.645-0.367-0.869-1.188-0.502-1.833c0.345-0.606,1.092-0.841,1.716-0.561l0.016,0.007
								c2.168,0.981,4.361,1.894,6.567,2.629c1.102,0.352,2.208,0.682,3.289,0.897c0.536,0.099,1.072,0.19,1.562,0.219
								c0.248,0.021,0.479,0.021,0.683,0.013c0.091-0.01,0.198-0.012,0.251-0.028c0.039-0.005,0.063-0.011,0.061-0.016
								c0,0,0.026-0.006-0.013-0.001c-0.047,0.013,0.019-0.017-0.2,0.064c1.029-0.428,2.21,0.059,2.638,1.088
								C296.356,220.221,295.869,221.403,294.84,221.831z"/>
						</g>
						<g>
							<path style="fill:#FFB9B6;" d="M298.936,222.93c-0.353,0.257-0.508,0.326-0.741,0.452c-0.219,0.118-0.424,0.197-0.637,0.294
								c-0.419,0.164-0.837,0.308-1.254,0.41c-0.835,0.225-1.664,0.322-2.483,0.372c-1.639,0.08-3.218-0.138-4.713-0.514
								c-1.51-0.35-2.915-0.915-4.288-1.508c-0.665-0.335-1.337-0.656-1.99-1.002l-1.907-1.112c-0.64-0.373-0.856-1.194-0.483-1.834
								c0.354-0.607,1.112-0.833,1.735-0.535l0.082,0.039l1.842,0.886l1.874,0.764c1.266,0.428,2.537,0.826,3.813,1.011
								c1.27,0.217,2.542,0.279,3.729,0.12c0.589-0.087,1.167-0.202,1.687-0.394c0.267-0.086,0.509-0.199,0.742-0.31
								c0.103-0.062,0.228-0.118,0.314-0.179c0.076-0.045,0.227-0.156,0.158-0.112c0.871-0.696,2.14-0.554,2.836,0.317
								C299.948,220.965,299.807,222.235,298.936,222.93z"/>
						</g>
					</g>
					<path style="fill:#6C5EFF;" d="M379.262,209.358l-19.111-7.785l12.22-23.117l18.236-12.367
						C390.607,166.088,405.389,181.333,379.262,209.358z"/>
					<path style="fill:#FFFFFF;" d="M363.319,195.579l-3.168,5.993l19.111,7.785c1.706-1.83,3.234-3.604,4.607-5.325
						C377.055,201.133,370.194,198.338,363.319,195.579z"/>
				</g>
				<g>
					<g>
						<path style="fill:#4348D9;" d="M371.392,180.309c-0.627,1.936-1.401,3.794-2.221,5.627c-0.813,1.837-1.709,3.631-2.63,5.411
							c-0.93,1.776-1.908,3.526-2.96,5.237c-1.048,1.713-2.159,3.393-3.43,4.988c0.603-1.949,1.366-3.812,2.191-5.643
							c0.821-1.833,1.717-3.627,2.66-5.395c0.952-1.764,1.93-3.514,2.99-5.221C369.046,183.603,370.145,181.917,371.392,180.309z"/>
					</g>
					<g>
						<path style="fill:#4348D9;" d="M379.262,209.358c1.854-2.405,3.593-4.854,5.244-7.353c1.636-2.507,3.159-5.076,4.533-7.717
							c1.413-2.626,2.523-5.39,3.537-8.189l0.69-2.129c0.229-0.711,0.368-1.445,0.571-2.167c0.47-1.439,0.575-2.937,0.935-4.425
							c0.061,3.025-0.204,6.115-1.016,9.074c-0.793,2.957-1.871,5.854-3.292,8.568c-1.407,2.72-3.045,5.317-4.916,7.729
							C383.678,205.156,381.617,207.428,379.262,209.358z"/>
					</g>
				</g>
			</g>
			<path style="fill:#FFFFFF;" d="M380.793,157.813l3.602,2.68c1.179,0.877,1.526,2.493,0.81,3.776l-3.219,5.775l-13.063,9.797
				l1.072-10.512l6.759-4.184L380.793,157.813z"/>
			<path style="fill:#FFFFFF;" d="M368.924,158.237l-2.095,1.538c-0.686,0.504-1.184,1.221-1.417,2.04l-2.236,7.866l0.974,7.062
				l5.845-7.414l-1.317-5.58L368.924,158.237z"/>
		</g>
		<g>
			<g>
				<g>
					<path style="fill:#5E93FF;" d="M329.701,302.801c0.166-0.055,0.336-0.093,0.505-0.138l0.526-0.144l0.001,0.014
						c0.484-0.099,0.973-0.169,1.472-0.182c6.511-0.166,11.82,7.275,11.937,16.76c0.116,9.439-4.941,17.535-11.447,18.258
						l0.001,0.021l-41.599,13.621l-2.755-1.139v-36.099L329.701,302.801z"/>
					<path style="fill:#3666C7;" d="M291.097,314.955l46.405,20.373c0,0-3.077,1.848-4.807,2.04l0.001,0.021l-41.599,13.621
						l-2.755-1.139v-36.099L291.097,314.955z"/>
					<path style="fill:#0A43B8;" d="M291.097,351.009v-36.054l38.604-10.24c0.166-0.055,0.336-0.093,0.505-0.138l0.526-0.144
						l0.001,0.014c0.484-0.098,0.973-0.169,1.472-0.182c6.511-0.166,11.82,7.274,11.937,16.76
						c0.116,9.439-4.941,17.535-11.447,18.258l0.001,0.02L291.097,351.009z"/>
				</g>
				<g>
					<path style="fill:#BFA847;" d="M336.894,321.318c-0.187,4.643-3.388,8.62-7.503,9.086c-4.555,0.516-8.752-3.369-8.921-8.967
						c-0.177-5.881,4.129-10.39,9.079-9.855C333.983,312.06,337.088,316.482,336.894,321.318z"/>
					<path style="fill:#FFE05E;" d="M337.851,322.275c-0.187,4.643-3.388,8.62-7.503,9.086c-4.555,0.516-8.752-3.369-8.921-8.967
						c-0.177-5.881,4.129-10.39,9.079-9.855C334.94,313.017,338.045,317.439,337.851,322.275z"/>
					<path style="fill:#DBC151;" d="M334.876,322.157c-0.119,2.961-2.161,5.497-4.785,5.794c-2.905,0.329-5.581-2.148-5.689-5.719
						c-0.113-3.75,2.633-6.626,5.79-6.285C333.02,316.253,335,319.074,334.876,322.157z"/>
				</g>
			</g>
			<g>
				<path style="fill:#2D5DC2;" d="M298.974,261.493H119.008c-4.997,0-9.048,4.051-9.048,9.048v122.05
					c0,4.997,4.051,9.048,9.048,9.048h176.941l-0.549,0.472l3.91,3.295l6.02-6.378c1.661-1.64,2.693-3.917,2.693-6.436v-122.05
					C308.022,265.544,303.971,261.493,298.974,261.493z"/>
				<path style="fill:#3D76EB;" d="M299.618,270.447l6.095-5.928c-1.657-1.853-4.058-3.026-6.739-3.026H119.008
					c-4.997,0-9.048,4.051-9.048,9.048v122.05c0,4.997,4.051,9.048,9.048,9.048h74.365
					C209.105,383.505,299.618,270.447,299.618,270.447z"/>
				<path style="fill:#0A43B8;" d="M293.135,407.853H113.169c-4.997,0-9.048-4.051-9.048-9.048v-122.05
					c0-4.997,4.051-9.048,9.048-9.048h179.966c4.997,0,9.048,4.051,9.048,9.048v122.05
					C302.183,403.803,298.132,407.853,293.135,407.853z"/>
				<path style="fill:#2259C9;" d="M284.348,400.682H134.949c-5.178,0-9.376-4.197-9.376-9.375V285.181
					c0-5.178,4.197-9.375,9.376-9.375h149.399c5.178,0,9.376,4.198,9.376,9.375v106.125
					C293.723,396.484,289.525,400.682,284.348,400.682z"/>
				<g>
					<path style="fill:#338EB3;" d="M278.159,384.823H138.842c-5.419,0-9.813-4.393-9.813-9.813v-85.035
						c0-5.419,4.393-9.813,9.813-9.813h139.318c5.419,0,9.813,4.393,9.813,9.813v85.035
						C287.972,380.43,283.579,384.823,278.159,384.823z"/>
					<path style="fill:#1FC0E5;" d="M276.245,386.737H136.928c-5.419,0-9.813-4.393-9.813-9.813v-85.035
						c0-5.419,4.393-9.813,9.813-9.813h139.318c5.419,0,9.813,4.393,9.813,9.813v85.035
						C286.058,382.344,281.665,386.737,276.245,386.737z"/>
					<g>
						<g>
							<path style="fill:#7DA6FF;" d="M165.364,342.623h-25.99c-2.162,0-3.914-1.752-3.914-3.914V323
								c0-2.162,1.752-3.914,3.914-3.914h25.99c2.161,0,3.914,1.752,3.914,3.914v15.709
								C169.278,340.871,167.525,342.623,165.364,342.623z"/>
							<g>
								<g>
									
										<line style="fill:none;stroke:#FFFCFC;stroke-width:0.8219;stroke-miterlimit:10;" x1="135.46" y1="326.679" x2="169.278" y2="326.679"/>
									
										<line style="fill:none;stroke:#FFFCFC;stroke-width:0.8219;stroke-miterlimit:10;" x1="135.46" y1="335.03" x2="169.278" y2="335.03"/>
								</g>
								<g>
									
										<line style="fill:none;stroke:#FFFCFC;stroke-width:0.8219;stroke-miterlimit:10;" x1="145.727" y1="335.03" x2="145.727" y2="326.679"/>
									
										<line style="fill:none;stroke:#FFFCFC;stroke-width:0.8219;stroke-miterlimit:10;" x1="159.01" y1="335.03" x2="159.01" y2="326.679"/>
								</g>
							</g>
						</g>
						<g>
							<path style="fill:#FEE1A8;" d="M164.614,359.928h-27.272c-1.039,0-1.882-0.842-1.882-1.882v-4.778
								c0-1.039,0.842-1.882,1.882-1.882h27.272c1.039,0,1.882,0.842,1.882,1.882v4.778
								C166.496,359.085,165.653,359.928,164.614,359.928z"/>
							<path style="fill:#FEE1A8;" d="M201.686,359.928h-27.272c-1.039,0-1.882-0.842-1.882-1.882v-4.778
								c0-1.039,0.842-1.882,1.882-1.882h27.272c1.039,0,1.882,0.842,1.882,1.882v4.778
								C203.568,359.085,202.726,359.928,201.686,359.928z"/>
							<path style="fill:#FEE1A8;" d="M238.759,359.928h-27.272c-1.039,0-1.882-0.842-1.882-1.882v-4.778
								c0-1.039,0.843-1.882,1.882-1.882h27.272c1.039,0,1.882,0.842,1.882,1.882v4.778
								C240.641,359.085,239.798,359.928,238.759,359.928z"/>
							<path style="fill:#FEE1A8;" d="M275.831,359.928h-27.272c-1.039,0-1.882-0.842-1.882-1.882v-4.778
								c0-1.039,0.842-1.882,1.882-1.882h27.272c1.039,0,1.882,0.842,1.882,1.882v4.778
								C277.713,359.085,276.87,359.928,275.831,359.928z"/>
						</g>
					</g>
					<path style="fill:#9098BD;" d="M275.72,379.618h-85.188c-1.101,0-1.993-0.892-1.993-1.993v-4.628
						c0-1.101,0.892-1.993,1.993-1.993h85.188c1.101,0,1.993,0.892,1.993,1.993v4.628
						C277.713,378.725,276.821,379.618,275.72,379.618z"/>
					<g>
						<path style="fill:#9098BD;" d="M256.096,367.654h-7.964c-0.543,0-0.983-0.44-0.983-0.983v-2.615
							c0-0.543,0.44-0.983,0.983-0.983h7.964c0.543,0,0.983,0.44,0.983,0.983v2.615C257.08,367.214,256.639,367.654,256.096,367.654
							z"/>
						<path style="fill:#9098BD;" d="M276.355,367.654h-7.964c-0.543,0-0.983-0.44-0.983-0.983v-2.615
							c0-0.543,0.44-0.983,0.983-0.983h7.964c0.543,0,0.983,0.44,0.983,0.983v2.615
							C277.338,367.214,276.898,367.654,276.355,367.654z"/>
					</g>
				</g>
				<path style="fill:#4377E0;" d="M125.573,325.62v65.687c0,5.178,4.198,9.375,9.376,9.375h149.399
					c5.178,0,9.376-4.198,9.376-9.375V325.62H125.573z"/>
				<path style="fill:#255AC4;" d="M125.573,360.395v30.912c0,5.178,4.198,9.375,9.376,9.375h149.399
					c5.178,0,9.376-4.198,9.376-9.375v-30.912H125.573z"/>
			</g>
			<g>
				<path style="fill:#2259C9;" d="M237.08,427.824l-10.64,5.345l0.607-137.522l11.987-2.091v131.101
					C239.034,425.997,238.278,427.223,237.08,427.824z"/>
				<path style="fill:#3D76EB;" d="M239.034,293.557c0,0,0.435-2.651-2.496-3.29c-2.048-0.447-121.406-27.891-121.406-27.891
					l-11.01,3.403l121.648,32.891L239.034,293.557z"/>
				<path style="fill:#2560D9;" d="M225.151,294.561l-121.03-28.782v132.793c0,4.299,2.959,8.032,7.144,9.013l111.151,26.057
					c3.733,0.875,7.306-1.958,7.306-5.792V300.348C229.723,297.593,227.831,295.198,225.151,294.561z"/>
				<g>
					<g>
						
							<line style="fill:none;stroke:#E0FEFD;stroke-width:0.9571;stroke-miterlimit:10;" x1="104.121" y1="273.648" x2="106.915" y2="274.312"/>
						<path style="fill:none;stroke:#E0FEFD;stroke-width:0.9571;stroke-miterlimit:10;stroke-dasharray:5.75,5.75;" d="
							M112.509,275.642l101.673,24.18c4.622,1.099,7.885,5.229,7.885,9.98V412.72c0,6.622-6.182,11.509-12.625,9.981l-99.729-23.654
							"/>
						
							<line style="fill:none;stroke:#E0FEFD;stroke-width:0.9571;stroke-miterlimit:10;" x1="106.915" y1="398.383" x2="104.121" y2="397.72"/>
					</g>
				</g>
				<path style="fill:#4377E0;" d="M120.19,261.493h-11.783c-2.367,0-4.285,1.918-4.285,4.285l0,0L120.19,261.493z"/>
			</g>
			<g>
				<path style="fill:#BAA445;" d="M197.521,351.254c0.794,5.142-2.158,9.866-6.594,10.552c-4.436,0.685-8.677-2.928-9.471-8.07
					c-0.794-5.142,2.158-9.867,6.594-10.552C192.486,342.499,196.726,346.112,197.521,351.254z"/>
				<path style="fill:#FFE05E;" d="M196.364,351.608c0.782,5.062-2.157,9.718-6.565,10.399c-4.408,0.681-8.615-2.871-9.396-7.933
					c-0.782-5.062,2.157-9.718,6.565-10.399C191.375,342.993,195.582,346.545,196.364,351.608z"/>
				<path style="fill:#DBC151;" d="M193.366,352.07c0.488,3.161-1.347,6.068-4.099,6.493c-2.752,0.425-5.379-1.793-5.867-4.953
					c-0.488-3.161,1.347-6.068,4.099-6.493C190.251,346.692,192.878,348.91,193.366,352.07z"/>
			</g>
		</g>
	</g>
</g>
</svg>
