<?xml version="1.0" encoding="utf-8"?>
<!-- Generator: Adobe Illustrator 27.5.0, SVG Export Plug-In . SVG Version: 6.00 Build 0)  -->
<svg version="1.1" xmlns="http://www.w3.org/2000/svg" xmlns:xlink="http://www.w3.org/1999/xlink" x="0px" y="0px"
	 viewBox="0 0 500 500" style="enable-background:new 0 0 500 500;" xml:space="preserve">
<g id="Background_Simple">
	<g>
		<path style="fill:#C6FF00;" d="M106.655,396.295c0,0,43.071,48.553,111.811,46.694c68.741-1.859,127.661-48.149,176.383-84.392
			c48.722-36.243,62.137-92.966,34.231-137.523c-27.906-44.557-72.887-26.189-129.837-55.381
			c-56.95-29.192-67.688-45.611-131.398-39.047c-63.709,6.563-112.674,77.828-105.968,154.149
			C68.583,357.116,106.655,396.295,106.655,396.295z"/>
		<path style="opacity:0.7;fill:#FFFFFF;" d="M106.655,396.295c0,0,43.071,48.553,111.811,46.694
			c68.741-1.859,127.661-48.149,176.383-84.392c48.722-36.243,62.137-92.966,34.231-137.523
			c-27.906-44.557-72.887-26.189-129.837-55.381c-56.95-29.192-67.688-45.611-131.398-39.047
			c-63.709,6.563-112.674,77.828-105.968,154.149C68.583,357.116,106.655,396.295,106.655,396.295z"/>
	</g>
</g>
<g id="Device">
	<g>
		<path id="XMLID_6_" style="opacity:0.2;" d="M254.963,327.127V189.819c0-3.029,2.456-5.485,5.485-5.485h59.067
			c3.03,0,5.485,2.456,5.485,5.485v137.308c0,3.029-2.456,5.485-5.485,5.485h-59.067
			C257.419,332.612,254.963,330.156,254.963,327.127z"/>
		<path id="XMLID_229_" style="fill:#B5B5B5;stroke:#263238;stroke-linecap:round;stroke-linejoin:round;stroke-miterlimit:10;" d="
			M252.026,325.365V188.057c0-3.03,2.456-5.485,5.485-5.485h59.068c3.029,0,5.485,2.456,5.485,5.485v137.308
			c0,3.03-2.456,5.485-5.485,5.485h-59.068C254.482,330.85,252.026,328.394,252.026,325.365z"/>
		<path id="XMLID_247_" style="fill:#C6FF00;stroke:#263238;stroke-linecap:round;stroke-linejoin:round;stroke-miterlimit:10;" d="
			M316.579,182.571h-59.068c-3.029,0-5.485,2.456-5.485,5.485v3.348h70.038v-3.348C322.065,185.027,319.609,182.571,316.579,182.571
			z"/>
		
			<rect id="XMLID_236_" x="256.128" y="198.661" style="fill:#263238;stroke:#263238;stroke-linecap:round;stroke-linejoin:round;stroke-miterlimit:10;" width="44.799" height="73.193"/>
		<path id="XMLID_242_" style="fill:#C6FF00;stroke:#263238;stroke-linecap:round;stroke-linejoin:round;stroke-miterlimit:10;" d="
			M252.026,322.963v2.402c0,3.029,2.456,5.485,5.485,5.485h59.068c3.029,0,5.485-2.456,5.485-5.485v-2.402H252.026z"/>
		
			<rect id="XMLID_238_" x="282.944" y="307.82" style="fill:none;stroke:#263238;stroke-linecap:round;stroke-linejoin:round;stroke-miterlimit:10;" width="13.881" height="15.143"/>
		<path id="XMLID_240_" style="fill:none;stroke:#263238;stroke-linecap:round;stroke-linejoin:round;stroke-miterlimit:10;" d="
			M293.671,307.82c0-2.265-1.836-4.101-4.101-4.101s-4.101,1.836-4.101,4.101c0,2.265,1.836,4.101,4.101,4.101
			S293.671,310.085,293.671,307.82z"/>
		
			<line id="XMLID_241_" style="fill:#FFFFFF;stroke:#263238;stroke-linecap:round;stroke-linejoin:round;stroke-miterlimit:10;" x1="288.307" y1="303.718" x2="288.307" y2="271.854"/>
		
			<rect id="XMLID_239_" x="256.128" y="281.319" style="fill:none;stroke:#263238;stroke-linecap:round;stroke-linejoin:round;stroke-miterlimit:10;" width="12.935" height="16.405"/>
		
			<rect id="XMLID_248_" x="289.885" y="322.963" style="fill:#263238;stroke:#263238;stroke-linecap:round;stroke-linejoin:round;stroke-miterlimit:10;" width="12.619" height="7.887"/>
		<polygon id="XMLID_276_" style="fill:#C6FF00;" points="286.897,214.894 280.185,214.894 272.333,233.061 278,233.061 
			271.333,250.894 286.667,228.394 280.667,228.394 		"/>
	</g>
	<g>
		<path id="XMLID_9_" style="opacity:0.2;" d="M161.552,341.344h10.289v70.038h-10.289c-3.029,0-5.485-2.456-5.485-5.485v-59.068
			C156.067,343.799,158.523,341.344,161.552,341.344z"/>
		<path id="XMLID_233_" style="fill:#C6FF00;stroke:#263238;stroke-linecap:round;stroke-linejoin:round;stroke-miterlimit:10;" d="
			M159.711,339.809H170v70.038h-10.289c-3.029,0-5.485-2.456-5.485-5.485v-59.068C154.225,342.265,156.681,339.809,159.711,339.809z
			"/>
	</g>
	<g>
		<path id="XMLID_8_" style="opacity:0.2;" d="M361.861,341.571h-10.289v30.137c0.98-0.698,2.176-1.113,3.47-1.113
			c3.31,0,5.994,2.684,5.994,5.994c0,3.311-2.684,5.994-5.994,5.994c-1.295,0-2.49-0.415-3.47-1.113v30.137h10.289
			c3.029,0,5.485-2.456,5.485-5.485v-59.068C367.346,344.027,364.89,341.571,361.861,341.571z"/>
		<path id="XMLID_234_" style="fill:#C6FF00;stroke:#263238;stroke-linecap:round;stroke-linejoin:round;stroke-miterlimit:10;" d="
			M360.099,339.809h-10.289v30.137c0.98-0.698,2.176-1.113,3.47-1.113c3.311,0,5.994,2.684,5.994,5.994
			c0,3.31-2.684,5.994-5.994,5.994c-1.295,0-2.49-0.415-3.47-1.113v30.138h10.289c3.029,0,5.485-2.456,5.485-5.485v-59.068
			C365.584,342.265,363.128,339.809,360.099,339.809z"/>
	</g>
	<g>
		<path id="XMLID_7_" style="opacity:0.2;" d="M331.146,412.197H193.837c-3.029,0-5.485-2.456-5.485-5.485v-59.068
			c0-3.03,2.456-5.485,5.485-5.485h137.309c3.029,0,5.485,2.456,5.485,5.485v59.068
			C336.631,409.741,334.175,412.197,331.146,412.197z"/>
		<path id="XMLID_225_" style="fill:#263238;stroke:#263238;stroke-linecap:round;stroke-linejoin:round;stroke-miterlimit:10;" d="
			M327.621,409.847H190.313c-3.029,0-5.485-2.456-5.485-5.485v-59.068c0-3.029,2.456-5.485,5.485-5.485h137.308
			c3.03,0,5.485,2.456,5.485,5.485v59.068C333.107,407.391,330.651,409.847,327.621,409.847z"/>
		<path id="XMLID_263_" style="fill:#C6FF00;stroke:#263238;stroke-linecap:round;stroke-linejoin:round;stroke-miterlimit:10;" d="
			M325.913,408.279H192.022c-3.029,0-5.485-2.456-5.485-5.485v-55.932c0-3.029,2.456-5.485,5.485-5.485h133.891
			c3.029,0,5.485,2.456,5.485,5.485v55.932C331.398,405.823,328.942,408.279,325.913,408.279z"/>
		<path id="XMLID_231_" style="fill:#B5B5B5;stroke:#263238;stroke-linecap:round;stroke-linejoin:round;stroke-miterlimit:10;" d="
			M295.879,406.377h-98.831c-3.265,0-5.911-2.647-5.911-5.911v-50.644c0-3.265,2.646-5.911,5.911-5.911h98.831V406.377z"/>
		
			<circle id="XMLID_232_" style="fill:#263238;stroke:#263238;stroke-linecap:round;stroke-linejoin:round;stroke-miterlimit:10;" cx="323.957" cy="374.513" r="4.101"/>
		
			<rect id="XMLID_235_" x="299.034" y="394.388" style="fill:none;stroke:#263238;stroke-linecap:round;stroke-linejoin:round;stroke-miterlimit:10;" width="2.839" height="11.988"/>
		
			<rect id="XMLID_237_" x="299.034" y="376.09" style="fill:none;stroke:#263238;stroke-linecap:round;stroke-linejoin:round;stroke-miterlimit:10;" width="2.839" height="11.989"/>
	</g>
	<path id="XMLID_256_" style="fill:#263238;" d="M221.629,280.319h-28.045v-1.524c0-0.828-0.672-1.5-1.5-1.5
		c-0.828,0-1.5,0.672-1.5,1.5v23.977c0,0.828,0.672,1.5,1.5,1.5c0.828,0,1.5-0.672,1.5-1.5v-2.155h28.045
		c2.004,0,3.635-1.63,3.635-3.634v-13.03C225.264,281.949,223.633,280.319,221.629,280.319z M193.584,282.319h18.953v16.298h-18.953
		V282.319z M223.264,296.983c0,0.9-0.733,1.634-1.635,1.634h-7.092v-16.298h7.092c0.901,0,1.635,0.733,1.635,1.634V296.983z"/>
	<g>
		
			<polygon id="XMLID_246_" style="fill:#C6FF00;stroke:#263238;stroke-linecap:round;stroke-linejoin:round;stroke-miterlimit:10;" points="
			205.076,247.562 193.346,247.562 193.346,272.485 213.852,272.485 213.852,255.607 		"/>
		<g id="XMLID_244_">
			
				<path id="XMLID_243_" style="fill:#FFFFFF;stroke:#263238;stroke-linecap:round;stroke-linejoin:round;stroke-miterlimit:10;" d="
				M206.435,268.852h-7.428c-1.388,0-2.514-1.126-2.514-2.514v-8.911c0-1.389,1.126-2.514,2.514-2.514h7.428
				c1.388,0,2.514,1.125,2.514,2.514v8.911C208.949,267.726,207.823,268.852,206.435,268.852z"/>
			
				<line id="XMLID_245_" style="fill:none;stroke:#263238;stroke-linecap:round;stroke-linejoin:round;stroke-miterlimit:10;" x1="202.597" y1="255.162" x2="202.597" y2="268.863"/>
			
				<line id="XMLID_249_" style="fill:none;stroke:#263238;stroke-linecap:round;stroke-linejoin:round;stroke-miterlimit:10;" x1="196.493" y1="262.137" x2="208.824" y2="262.137"/>
			<path id="XMLID_250_" style="fill:none;stroke:#263238;stroke-linecap:round;stroke-linejoin:round;stroke-miterlimit:10;" d="
				M199.483,268.738v-3.106c0-1.724,1.398-3.121,3.121-3.121h0.109c1.724,0,3.121,1.397,3.121,3.121v3.22"/>
			<path id="XMLID_251_" style="fill:none;stroke:#263238;stroke-linecap:round;stroke-linejoin:round;stroke-miterlimit:10;" d="
				M205.835,255.63v3.106c0,1.724-1.398,3.121-3.121,3.121h-0.109c-1.724,0-3.121-1.397-3.121-3.121v-3.22"/>
		</g>
	</g>
</g>
<g id="Tool_2">
	<g>
		<path style="opacity:0.2;" d="M401.36,231.733c0-0.276-0.224-0.5-0.5-0.5h-19.827c-0.276,0-0.5,0.224-0.5,0.5v14.664
			c0,0.136,0.055,0.26,0.144,0.35l4.13,50.614c0.002,0.022,0.005,0.044,0.01,0.065v52.326c0,0.156,0.076,0.29,0.187,0.381
			l2.762,17.112c0.039,0.242,0.248,0.42,0.493,0.42h0.741l0.668,38.259c0.012,0.685,0.578,1.241,1.263,1.241
			c0.684,0,1.251-0.556,1.264-1.24l0.667-38.26h0.773c0.245,0,0.454-0.178,0.493-0.42l2.761-17.111
			c0.112-0.092,0.188-0.225,0.188-0.382v-52.325c0.005-0.021,0.008-0.044,0.01-0.066l4.131-50.616
			c0.088-0.09,0.143-0.212,0.143-0.348V231.733z"/>
		<g>
			<path style="fill:#FFFFFF;stroke:#263238;stroke-miterlimit:10;" d="M388.392,406.666L388.392,406.666
				c-0.416,0-0.756-0.334-0.763-0.75l-0.737-42.25h3l-0.737,42.25C389.148,406.333,388.809,406.666,388.392,406.666z"/>
			<polygon style="fill:#263238;stroke:#263238;stroke-linecap:round;stroke-linejoin:round;stroke-miterlimit:10;" points="
				398.201,246.439 378.613,246.439 382.766,297.32 382.778,297.32 382.778,349.753 394.037,349.753 394.037,297.32 394.049,297.32 
							"/>
			
				<rect x="378.494" y="231.734" style="fill:#C6FF00;stroke:#263238;stroke-linecap:round;stroke-linejoin:round;stroke-miterlimit:10;" width="19.827" height="14.663"/>
			<polygon style="fill:#C6FF00;stroke:#263238;stroke-linecap:round;stroke-linejoin:round;stroke-miterlimit:10;" points="
				391.095,367.166 385.72,367.166 382.922,349.831 393.892,349.831 			"/>
		</g>
	</g>
</g>
<g id="Tool_1">
	<g>
		<path style="opacity:0.2;" d="M134.819,247.001c-0.005-0.125-0.058-0.243-0.146-0.332c-0.414-0.413-0.796-0.343-0.986-0.265
			c-1.438,0.595-1.579,6.613-1.593,22.392c-0.009,9.526-0.019,20.324-0.771,27.424c-1.699,16.019-6.421,39.948-10.983,55.663
			c-1.326,4.565-2.071,8.211-2.461,11.088c-0.39-2.877-1.136-6.522-2.461-11.088c-4.562-15.715-9.284-39.645-10.983-55.663
			c-0.753-7.1-0.763-17.897-0.771-27.424c-0.014-15.778-0.155-21.797-1.593-22.392c-0.189-0.079-0.572-0.149-0.986,0.265
			c-0.088,0.088-0.141,0.207-0.146,0.332c-0.022,0.51-2.209,51.3,1.507,72.608c1.657,9.502,3.517,19.081,5.316,28.345
			c2.257,11.63,4.207,21.674,5.182,28.639c1.383,9.882,1.358,22.389,1.283,27.307c-0.009,0.631,0.229,1.226,0.671,1.675
			c0.444,0.451,1.039,0.699,1.674,0.699h2.617c0.635,0,1.229-0.248,1.673-0.699c0.442-0.449,0.681-1.044,0.671-1.675
			c-0.075-4.917-0.1-17.422,1.284-27.307c0.975-6.965,2.925-17.009,5.182-28.639c1.798-9.264,3.658-18.843,5.315-28.345
			C137.028,298.301,134.841,247.511,134.819,247.001z M117.878,371.747c0.035,0.14,0.068,0.259,0.099,0.357
			c-0.031,0.025-0.064,0.052-0.099,0.081c-0.035-0.029-0.068-0.056-0.099-0.081C117.81,372.006,117.843,371.887,117.878,371.747z"/>
		<path id="XMLID_260_" style="fill:#263238;stroke:#263238;stroke-linecap:round;stroke-linejoin:round;stroke-miterlimit:10;" d="
			M132.133,247.281c-3-3-0.75,32.75-2.5,49.25c-1.75,16.5-6.5,40.25-11,55.75s-2.25,20.25-2.25,20.25s-0.295,0.228-0.691,0.563
			c-0.396-0.336-0.691-0.563-0.691-0.563s2.25-4.75-2.25-20.25s-9.25-39.25-11-55.75s0.5-52.25-2.5-49.25c0,0-2.25,51,1.5,72.5
			s8.75,44.5,10.5,57c1.398,9.983,1.36,22.676,1.288,27.384c-0.016,1.029,0.815,1.866,1.844,1.866l0,0H117l0,0
			c1.029,0,1.86-0.837,1.844-1.866c-0.072-4.708-0.109-17.401,1.288-27.384c1.75-12.5,6.75-35.5,10.5-57
			C134.383,298.281,132.133,247.281,132.133,247.281z"/>
	</g>
</g>
<g id="Hand_2">
	<g>
		<path style="opacity:0.2;" d="M383.339,139.319c6.912-25.087,15.55-47.177,17.893-53.171l-40.847-1.587
			c0,0-11.867,30.71-16.599,39.228c-4.732,8.518-10.727,11.042-17.667,13.882c-6.941,2.839-26.501,15.143-28.394,19.876
			c-1.893,4.732-4.101,18.929-5.994,23.662c-1.893,4.732-5.679,7.256-11.358,8.834c-1.114,0.309-2.239,0.594-3.322,0.874
			c-0.026,0.007-0.05,0.013-0.076,0.02c-0.363,0.094-0.72,0.188-1.072,0.281c-0.193,0.051-0.386,0.103-0.574,0.155
			c-0.123,0.034-0.243,0.068-0.364,0.102c-0.175,0.049-0.348,0.099-0.518,0.149c-0.119,0.035-0.237,0.07-0.353,0.105
			c-0.176,0.053-0.348,0.107-0.517,0.162c-0.098,0.032-0.199,0.063-0.295,0.095c-0.254,0.085-0.501,0.171-0.735,0.259
			c-0.046,0.017-0.087,0.035-0.132,0.053c-0.19,0.073-0.373,0.148-0.548,0.224c-0.077,0.033-0.148,0.068-0.222,0.102
			c-0.137,0.064-0.269,0.128-0.395,0.194c-0.071,0.037-0.142,0.075-0.209,0.114c-0.123,0.07-0.237,0.142-0.346,0.215
			c-0.053,0.035-0.109,0.07-0.159,0.106c-0.15,0.109-0.288,0.221-0.406,0.337c-0.012,0.012-0.02,0.024-0.031,0.036
			c-0.104,0.106-0.193,0.216-0.269,0.329c-0.027,0.041-0.047,0.084-0.071,0.126c-0.049,0.088-0.091,0.179-0.123,0.272
			c-0.016,0.048-0.03,0.098-0.042,0.148c-0.022,0.097-0.032,0.197-0.034,0.299c-0.001,0.047-0.006,0.092-0.003,0.14
			c0.01,0.151,0.036,0.306,0.09,0.469c0.947,2.839,10.096,4.732,19.245,3.47c9.149-1.262,12.62-3.786,15.459-7.572
			c2.84-3.786,7.572-11.989,9.465-12.935c1.893-0.946,1.893-0.946,1.893-0.946s-0.315,33.757,0.315,37.858
			c0.631,4.101-2.839,18.298-9.78,35.335c-2.714,6.662-3.59,12.45-3.525,17.168c0,0.026,0.001,0.053,0.001,0.079
			c0.023,1.446,0.134,2.789,0.31,4.026c0.001,0.01,0.003,0.02,0.004,0.03c0.177,1.242,0.417,2.375,0.696,3.392
			c0.002,0.006,0.003,0.011,0.005,0.017c0.09,0.326,0.183,0.639,0.279,0.942c0.006,0.018,0.012,0.037,0.017,0.055
			c0.198,0.617,0.408,1.184,0.624,1.697c0.006,0.014,0.012,0.027,0.018,0.041c0.096,0.228,0.193,0.444,0.291,0.651
			c0.019,0.041,0.039,0.082,0.058,0.122c0.092,0.19,0.183,0.372,0.275,0.543c0.013,0.026,0.027,0.052,0.04,0.078
			c0.105,0.194,0.209,0.376,0.312,0.545c0.011,0.018,0.022,0.034,0.033,0.052c0.087,0.141,0.173,0.272,0.257,0.395
			c0.028,0.041,0.056,0.08,0.084,0.119c0.069,0.096,0.137,0.186,0.203,0.269c0.026,0.033,0.053,0.068,0.079,0.099
			c0.088,0.105,0.174,0.202,0.255,0.283c2.208,2.209,6.625,2.209,7.572,1.262c0.947-0.947,0.316-13.566,2.209-21.769
			c1.893-8.203,12.935-29.971,16.09-34.388c3.155-4.417,6.625-11.042,6.625-11.042s-1.578,13.566-7.887,29.971
			c-6.31,16.405-12.935,27.132-14.197,31.864c-1.262,4.732,3.47,7.572,6.31,6.31c2.839-1.262,8.834-13.882,11.042-18.298
			c2.208-4.417,8.518-15.143,8.518-15.143s5.363,0.947,9.149-3.786c0.46-0.575,0.953-1.225,1.463-1.922
			c1.298,0.185,3.159,0.171,5.478-0.602c4.732-1.577,4.417-6.31,6.31-11.042c0.764-1.909,1.989-3.71,3.18-5.186
			c1.609-1.228,3-2.535,3.445-3.648c0.933-2.331,2.382-19.649,3.839-32.861C375.982,179.092,377.396,160.889,383.339,139.319z"/>
		<g id="XMLID_228_">
			<g>
				<defs>
					<path id="XMLID_227_" d="M366.864,219.799c0,0-4.732,4.101-6.625,8.834c-1.893,4.732-1.577,9.465-6.31,11.042
						c-4.732,1.577-7.572,0-7.572,0s3.786-9.465,5.994-12.619C354.56,223.9,366.864,219.799,366.864,219.799z"/>
				</defs>
				<clipPath id="XMLID_00000134211079020440346520000008309578933141359016_">
					<use xlink:href="#XMLID_227_"  style="overflow:visible;"/>
				</clipPath>
				<path id="XMLID_2_" style="clip-path:url(#XMLID_00000134211079020440346520000008309578933141359016_);fill:#C6FF00;" d="
					M366.864,219.799c0,0-4.732,4.101-6.625,8.834c-1.893,4.732-1.577,9.465-6.31,11.042c-4.732,1.577-7.572,0-7.572,0
					s3.786-9.465,5.994-12.619C354.56,223.9,366.864,219.799,366.864,219.799z"/>
				
					<path id="XMLID_4_" style="opacity:0.5;clip-path:url(#XMLID_00000134211079020440346520000008309578933141359016_);fill:#FFFFFF;" d="
					M366.864,219.799c0,0-4.732,4.101-6.625,8.834c-1.893,4.732-1.577,9.465-6.31,11.042c-4.732,1.577-7.572,0-7.572,0
					s3.786-9.465,5.994-12.619C354.56,223.9,366.864,219.799,366.864,219.799z"/>
				
					<use xlink:href="#XMLID_227_"  style="overflow:visible;fill:none;stroke:#263238;stroke-linecap:round;stroke-linejoin:round;stroke-miterlimit:10;"/>
			</g>
			<g>
				<defs>
					<path id="XMLID_224_" d="M355.385,80.561c0,0-11.867,30.71-16.599,39.228c-4.732,8.518-10.727,11.042-17.667,13.882
						c-6.941,2.839-26.501,15.143-28.394,19.876c-1.893,4.732-4.101,18.929-5.994,23.661c-1.893,4.732-5.679,7.256-11.358,8.834
						c-5.679,1.577-11.673,2.524-10.727,5.363s10.096,4.732,19.245,3.47c9.149-1.262,12.62-3.786,15.459-7.572
						c2.839-3.786,7.572-11.988,9.465-12.935c1.893-0.946,1.893-0.946,1.893-0.946s-0.315,33.757,0.315,37.858
						c0.631,4.101-2.839,18.298-9.78,35.335s-1.893,28.394,0.315,30.602s6.625,2.208,7.572,1.262
						c0.947-0.946,0.316-13.566,2.208-21.769c1.893-8.203,12.935-29.971,16.09-34.388c3.155-4.417,6.625-11.042,6.625-11.042
						s-1.577,13.566-7.887,29.971c-6.31,16.405-12.935,27.132-14.197,31.864c-1.262,4.732,3.47,7.572,6.31,6.31
						c2.839-1.262,8.834-13.882,11.042-18.298s8.518-15.143,8.518-15.143s5.363,0.947,9.149-3.786
						c3.786-4.732,9.78-14.512,9.78-14.512s8.834-4.732,10.096-7.887c1.262-3.155,3.47-33.757,5.363-44.484
						c1.893-10.727,7.256-33.757,10.096-42.906c2.839-9.149,23.54-48.693,23.54-48.693"/>
				</defs>
				<use xlink:href="#XMLID_224_"  style="overflow:visible;fill:#FFFFFF;"/>
				<clipPath id="XMLID_00000080203837176956274400000004000083440172281274_">
					<use xlink:href="#XMLID_224_"  style="overflow:visible;"/>
				</clipPath>
				<g style="clip-path:url(#XMLID_00000080203837176956274400000004000083440172281274_);">
					<path style="fill:#C6FF00;" d="M299.349,187.303c2.839-3.786,7.572-11.989,9.465-12.935c1.893-0.946,1.893-0.946,1.893-0.946
						S306,164.333,301.333,171C296.667,177.667,290,187.667,284,188.333c-4.155,0.462-7.991-0.674-11.95-1.417
						c-4.44,1.147-8.165,2.206-7.404,4.489c0.946,2.839,10.096,4.732,19.245,3.47C293.04,193.613,296.51,191.089,299.349,187.303z"
						/>
					<path style="fill:#C6FF00;" d="M297.727,262.326c-0.222,8.178,2.399,13.459,3.831,14.891c2.208,2.209,6.625,2.209,7.572,1.262
						c0.946-0.947,0.316-13.566,2.208-21.769c1.893-8.203,12.935-29.971,16.09-34.388c3.155-4.417,6.625-11.042,6.625-11.042
						S326.667,225,318.667,233C311.579,240.087,301.359,247.704,297.727,262.326z"/>
					<path style="fill:#C6FF00;" d="M392.667,109.667c0,0-7.333,13.333-21.333,32c-14,18.667-14.667,42-16.667,52
						s-0.667,19.333-8,30c-7.333,10.667-12,19.333-12,19.333l-0.614-31.719c0,0-1.578,13.566-7.887,29.971
						c-6.31,16.405-12.935,27.132-14.197,31.864s3.47,7.572,6.31,6.31c2.839-1.262,8.834-13.882,11.042-18.298
						s8.518-15.143,8.518-15.143s5.363,0.947,9.149-3.786c3.786-4.732,9.78-14.512,9.78-14.512s8.834-4.732,10.096-7.887
						c1.262-3.155,3.47-33.757,5.363-44.484c1.893-10.727,7.256-33.757,10.096-42.906c1.314-4.233,5.868-13.663,10.384-22.577
						L392.667,109.667z"/>
				</g>
				<g style="opacity:0.5;clip-path:url(#XMLID_00000080203837176956274400000004000083440172281274_);">
					<path style="fill:#FFFFFF;" d="M299.349,187.303c2.839-3.786,7.572-11.989,9.465-12.935c1.893-0.946,1.893-0.946,1.893-0.946
						S306,164.333,301.333,171C296.667,177.667,290,187.667,284,188.333c-4.155,0.462-7.991-0.674-11.95-1.417
						c-4.44,1.147-8.165,2.206-7.404,4.489c0.946,2.839,10.096,4.732,19.245,3.47C293.04,193.613,296.51,191.089,299.349,187.303z"
						/>
					<path style="fill:#FFFFFF;" d="M297.727,262.326c-0.222,8.178,2.399,13.459,3.831,14.891c2.208,2.209,6.625,2.209,7.572,1.262
						c0.946-0.947,0.316-13.566,2.208-21.769c1.893-8.203,12.935-29.971,16.09-34.388c3.155-4.417,6.625-11.042,6.625-11.042
						S326.667,225,318.667,233C311.579,240.087,301.359,247.704,297.727,262.326z"/>
					<path style="fill:#FFFFFF;" d="M392.667,109.667c0,0-7.333,13.333-21.333,32c-14,18.667-14.667,42-16.667,52
						s-0.667,19.333-8,30c-7.333,10.667-12,19.333-12,19.333l-0.614-31.719c0,0-1.578,13.566-7.887,29.971
						c-6.31,16.405-12.935,27.132-14.197,31.864s3.47,7.572,6.31,6.31c2.839-1.262,8.834-13.882,11.042-18.298
						s8.518-15.143,8.518-15.143s5.363,0.947,9.149-3.786c3.786-4.732,9.78-14.512,9.78-14.512s8.834-4.732,10.096-7.887
						c1.262-3.155,3.47-33.757,5.363-44.484c1.893-10.727,7.256-33.757,10.096-42.906c1.314-4.233,5.868-13.663,10.384-22.577
						L392.667,109.667z"/>
				</g>
				
					<use xlink:href="#XMLID_224_"  style="overflow:visible;fill:none;stroke:#263238;stroke-linecap:round;stroke-linejoin:round;stroke-miterlimit:10;"/>
			</g>
			<path style="fill:none;stroke:#263238;stroke-linecap:round;stroke-linejoin:round;stroke-miterlimit:10;" d="M336,206.333
				c0,0,2.667-1.333,3.333-6c0.667-4.667,0.667-8.667,0.667-8.667"/>
			<path id="XMLID_226_" style="fill:none;stroke:#263238;stroke-linecap:round;stroke-linejoin:round;stroke-miterlimit:10;" d="
				M337.839,245.984c0,0,9.78-17.667,11.358-18.614c1.577-0.947,6.625-3.786,6.941-8.203c0.316-4.417,0.631-9.78,0.631-9.78"/>
		</g>
	</g>
</g>
<g id="Hand_1">
	<g>
		<g id="XMLID_1_">
			
				<path id="XMLID_262_" style="fill:#FFFFFF;stroke:#263238;stroke-linecap:round;stroke-linejoin:round;stroke-miterlimit:10;" d="
				M168.386,82.974c0,0,10.763,38.393,12.971,43.125c2.208,4.732,14.197,12.304,16.405,22.715
				c2.208,10.411,5.048,14.828,7.572,22.715c2.524,7.887,4.732,7.887,0.947,14.512c-3.786,6.625-4.417,10.727-1.893,14.828
				c2.524,4.101,15.459,9.465,13.881,12.62c-1.577,3.155-3.155,4.101-4.417,4.101c-1.262,0-1.262,0-1.262,0
				s2.839,10.411,1.262,14.197c-1.577,3.786-5.363,6.31-6.625,4.417c-1.262-1.893-3.47-4.732-3.47-4.732s2.524,5.048-0.631,5.679
				c-3.155,0.631-3.786-0.315-8.518-2.524s-15.459-4.417-15.459-4.417s-12.619,5.048-16.721,6.31
				c-4.101,1.262-9.149-0.316-9.149-0.316s-13.566,5.363-15.774,0.947c-2.208-4.417-3.786-22.715-4.732-26.186
				c-0.946-3.47-4.101-6.31-3.47-11.673c0.631-5.363,2.208-8.518,2.524-10.727c0.315-2.208,8.518-42.275,8.518-51.109
				s-15.459-53.002-15.459-53.002"/>
			<path id="XMLID_261_" style="fill:none;stroke:#263238;stroke-linecap:round;stroke-linejoin:round;stroke-miterlimit:10;" d="
				M181.988,162.064c0,0,5.048,21.138,7.887,28.394c2.839,7.256,5.679,14.828,8.834,17.667c3.155,2.839,12.619,7.887,13.881,9.465"
				/>
			<path id="XMLID_259_" style="fill:none;stroke:#263238;stroke-linecap:round;stroke-linejoin:round;stroke-miterlimit:10;" d="
				M160.22,185.726c0,0,20.191,29.025,23.031,33.442c2.839,4.417,11.357,4.417,13.566,6.31c2.208,1.893,6.941,5.994,6.941,5.994"/>
			<path id="XMLID_258_" style="fill:none;stroke:#263238;stroke-linecap:round;stroke-linejoin:round;stroke-miterlimit:10;" d="
				M140.975,193.929c0,0,8.518,10.411,15.459,20.822c6.941,10.411,7.572,12.935,11.042,13.881c3.47,0.947,11.673,1.577,11.673,1.577
				"/>
			<path id="XMLID_253_" style="fill:none;stroke:#263238;stroke-linecap:round;stroke-linejoin:round;stroke-miterlimit:10;" d="
				M134.35,210.019c0,0,14.512,19.56,15.774,22.4c1.262,2.839,3.155,3.786,3.155,3.786"/>
			<path id="XMLID_152_" style="fill:none;stroke:#263238;stroke-linecap:round;stroke-linejoin:round;stroke-miterlimit:10;" d="
				M159.904,165.535c0,0-6.625,3.47-5.679,6.31c0.946,2.839,2.524,5.679,2.524,5.679"/>
			<path id="XMLID_3_" style="fill:none;stroke:#263238;stroke-linecap:round;stroke-linejoin:round;stroke-miterlimit:10;" d="
				M142.237,176.261c0,0-5.994,1.893-6.31,5.363c-0.315,3.47,1.262,6.31,1.262,6.31"/>
		</g>
		
			<rect id="XMLID_252_" x="209.333" y="216.894" style="fill:#FFFFFF;stroke:#263238;stroke-linecap:round;stroke-linejoin:round;stroke-miterlimit:10;" width="46.609" height="5.333"/>
		<path id="XMLID_5_" style="opacity:0.2;" d="M171.44,92.894c0,0,15.709,35.139,17.918,39.871
			c2.208,4.732,14.197,12.304,16.405,22.715c2.208,10.411,5.048,14.828,7.572,22.715c2.524,7.887,4.732,7.887,0.947,14.512
			c-3.786,6.625-4.417,10.727-1.893,14.828c2.524,4.101,15.459,9.465,13.881,12.619c-1.577,3.155-3.155,4.101-4.417,4.101
			c-1.262,0-1.262,0-1.262,0s2.839,10.411,1.262,14.197c-1.577,3.786-5.363,6.31-6.625,4.417c-1.262-1.893-3.47-4.732-3.47-4.732
			s2.524,5.048-0.631,5.679c-3.155,0.631-3.786-0.315-8.518-2.524c-4.732-2.209-15.459-4.417-15.459-4.417
			s-12.619,5.048-16.721,6.31c-4.101,1.262-9.149-0.316-9.149-0.316s-13.566,5.363-15.774,0.946
			c-2.208-4.417-3.786-22.715-4.732-26.185c-0.946-3.47-4.101-6.31-3.47-11.673c0.631-5.363,2.208-8.518,2.524-10.727
			c0.315-2.208,8.518-42.275,8.518-51.109c0-8.834-15.459-53.002-15.459-53.002"/>
		<g id="XMLID_230_">
			<g>
				<defs>
					<path id="XMLID_217_" d="M168.386,82.974c0,0,10.763,38.393,12.971,43.125c2.208,4.732,14.197,12.304,16.405,22.715
						c2.208,10.411,5.048,14.828,7.572,22.715c2.524,7.887,4.732,7.887,0.947,14.512c-3.786,6.625-4.417,10.727-1.893,14.828
						c2.524,4.101,15.459,9.465,13.881,12.62c-1.577,3.155-3.155,4.101-4.417,4.101c-1.262,0-1.262,0-1.262,0
						s2.839,10.411,1.262,14.197c-1.577,3.786-5.363,6.31-6.625,4.417c-1.262-1.893-3.47-4.732-3.47-4.732s2.524,5.048-0.631,5.679
						c-3.155,0.631-3.786-0.315-8.518-2.524s-15.459-4.417-15.459-4.417s-12.619,5.048-16.721,6.31
						c-4.101,1.262-9.149-0.316-9.149-0.316s-13.566,5.363-15.774,0.947c-2.208-4.417-3.786-22.715-4.732-26.186
						c-0.946-3.47-4.101-6.31-3.47-11.673c0.631-5.363,2.208-8.518,2.524-10.727c0.315-2.208,8.518-42.275,8.518-51.109
						s-15.459-53.002-15.459-53.002"/>
				</defs>
				<use xlink:href="#XMLID_217_"  style="overflow:visible;fill:#FFFFFF;"/>
				<clipPath id="XMLID_00000023258363720315067320000015527152543092715662_">
					<use xlink:href="#XMLID_217_"  style="overflow:visible;"/>
				</clipPath>
				<path style="clip-path:url(#XMLID_00000023258363720315067320000015527152543092715662_);fill:#C6FF00;" d="M162,231
					c-6.667,1.333-11.876,1.418-11.876,1.418s0.218,7.549-12.619,4.732c2.208,4.417,15.774-0.947,15.774-0.947
					s5.048,1.577,9.149,0.316c4.101-1.262,16.721-6.31,16.721-6.31s10.727,2.208,15.459,4.417s5.363,3.155,8.518,2.524
					c3.155-0.631,0.631-5.679,0.631-5.679s2.209,2.839,3.47,4.732c1.262,1.893,5.048-0.631,6.625-4.417
					c1.577-3.786-1.262-14.197-1.262-14.197s0,0,1.262,0c1.262,0,2.839-0.947,4.417-4.101c1.577-3.155-11.358-8.518-13.881-12.62
					c-2.524-4.101-1.893-8.203,1.893-14.828c3.786-6.625,1.577-6.625-0.947-14.512c-2.524-7.887-5.363-12.304-7.572-22.715
					c-1.999-9.425-12.014-16.523-15.531-21.294c2.255,5.818,5.289,12.427,9.102,18.147c9.333,14,10,27.333,7.333,34.667
					c-2.667,7.333-5.333,13.333-5.333,13.333L184,173c0,0,1.333,20,4,24.667c2.667,4.667,4,10,8.667,14
					c4.667,4,11.333,8.667,6,8.667c-5.333,0-19.417-1.166-19.417-1.166s1.417,5.166-5.917,5.166c-7.333,0-15.333-2-15.333-2
					S168.667,229.667,162,231z"/>
				<path style="opacity:0.5;clip-path:url(#XMLID_00000023258363720315067320000015527152543092715662_);fill:#FFFFFF;" d="
					M162,231c-6.667,1.333-11.876,1.418-11.876,1.418s0.218,7.549-12.619,4.732c2.208,4.417,15.774-0.947,15.774-0.947
					s5.048,1.577,9.149,0.316c4.101-1.262,16.721-6.31,16.721-6.31s10.727,2.208,15.459,4.417s5.363,3.155,8.518,2.524
					c3.155-0.631,0.631-5.679,0.631-5.679s2.209,2.839,3.47,4.732c1.262,1.893,5.048-0.631,6.625-4.417
					c1.577-3.786-1.262-14.197-1.262-14.197s0,0,1.262,0c1.262,0,2.839-0.947,4.417-4.101c1.577-3.155-11.358-8.518-13.881-12.62
					c-2.524-4.101-1.893-8.203,1.893-14.828c3.786-6.625,1.577-6.625-0.947-14.512c-2.524-7.887-5.363-12.304-7.572-22.715
					c-1.999-9.425-12.014-16.523-15.531-21.294c2.255,5.818,5.289,12.427,9.102,18.147c9.333,14,10,27.333,7.333,34.667
					c-2.667,7.333-5.333,13.333-5.333,13.333L184,173c0,0,1.333,20,4,24.667c2.667,4.667,4,10,8.667,14
					c4.667,4,11.333,8.667,6,8.667c-5.333,0-19.417-1.166-19.417-1.166s1.417,5.166-5.917,5.166c-7.333,0-15.333-2-15.333-2
					S168.667,229.667,162,231z"/>
				
					<use xlink:href="#XMLID_217_"  style="overflow:visible;fill:none;stroke:#263238;stroke-linecap:round;stroke-linejoin:round;stroke-miterlimit:10;"/>
			</g>
			<path id="XMLID_219_" style="fill:none;stroke:#263238;stroke-linecap:round;stroke-linejoin:round;stroke-miterlimit:10;" d="
				M181.988,162.064c0,0,5.048,21.138,7.887,28.394c2.839,7.256,5.679,14.828,8.834,17.667c3.155,2.839,12.619,7.887,13.881,9.465"
				/>
			<path id="XMLID_220_" style="fill:none;stroke:#263238;stroke-linecap:round;stroke-linejoin:round;stroke-miterlimit:10;" d="
				M160.22,185.726c0,0,20.191,29.025,23.031,33.442c2.839,4.417,11.357,4.417,13.566,6.31c2.208,1.893,6.941,5.994,6.941,5.994"/>
			<path id="XMLID_221_" style="fill:none;stroke:#263238;stroke-linecap:round;stroke-linejoin:round;stroke-miterlimit:10;" d="
				M140.975,193.929c0,0,8.518,10.411,15.459,20.822c6.941,10.411,7.572,12.935,11.042,13.881c3.47,0.947,11.673,1.577,11.673,1.577
				"/>
			<path id="XMLID_218_" style="fill:none;stroke:#263238;stroke-linecap:round;stroke-linejoin:round;stroke-miterlimit:10;" d="
				M134.35,210.019c0,0,14.512,19.56,15.774,22.4c1.262,2.839,3.155,3.786,3.155,3.786"/>
			<path id="XMLID_222_" style="fill:none;stroke:#263238;stroke-linecap:round;stroke-linejoin:round;stroke-miterlimit:10;" d="
				M159.904,165.535c0,0-6.625,3.47-5.679,6.31c0.946,2.839,2.524,5.679,2.524,5.679"/>
			<path id="XMLID_223_" style="fill:none;stroke:#263238;stroke-linecap:round;stroke-linejoin:round;stroke-miterlimit:10;" d="
				M142.237,176.261c0,0-5.994,1.893-6.31,5.363c-0.315,3.47,1.262,6.31,1.262,6.31"/>
		</g>
	</g>
</g>
</svg>
